<svg data-v-423bf9ae="" xmlns="http://www.w3.org/2000/svg" viewBox="0 0 165.12854543167694 60" class="font"><!----><!----><!----><g data-v-423bf9ae="" id="eeb77359-00e7-4508-a6d1-d5e560701683" fill="black" transform="matrix(5.0083474367812615,0,0,5.0083474367812615,-0.49749613092758693,-6.310517960999647)"><path d="M5.59 11.97L5.59 11.97Q5.68 12.03 5.68 12.12L5.68 12.12L5.68 12.12Q5.68 12.32 5.32 12.52L5.32 12.52L5.32 12.52Q4.96 12.73 4.62 12.73L4.62 12.73L4.62 12.73Q4.42 12.73 4.34 12.66L4.34 12.66L4.34 12.66Q4.27 12.60 3.94 12.36L3.94 12.36L3.94 12.36Q3.61 12.11 3.28 11.94L3.28 11.94L3.28 11.94Q2.94 11.77 2.69 11.77L2.69 11.77L2.69 11.77Q2.46 11.77 2.22 11.94L2.22 11.94L2.22 11.94Q1.97 12.10 1.75 12.29L1.75 12.29L1.75 12.29Q1.53 12.47 1.43 12.56L1.43 12.56L1.43 12.56Q1.25 12.70 0.97 12.80L0.97 12.80L0.97 12.80Q0.70 12.89 0.48 12.89L0.48 12.89L0.48 12.89Q0.28 12.89 0.18 12.82L0.18 12.82L0.18 12.82Q0.07 12.75 0.11 12.60L0.11 12.60L0.50 10.92L0.50 10.92Q1.69 5.75 2.59 2.16L2.59 2.16L2.59 2.16Q2.65 1.92 3.00 1.74L3.00 1.74L3.00 1.74Q3.36 1.57 3.70 1.57L3.70 1.57L3.70 1.57Q3.88 1.57 3.98 1.64L3.98 1.64L3.98 1.64Q4.07 1.71 4.03 1.85L4.03 1.85L4.03 1.85Q3.61 3.63 2.80 7.18L2.80 7.18L1.88 11.17L1.88 11.17Q2.35 10.93 2.79 10.88L2.79 10.88L2.79 10.88Q3.01 10.85 3.11 10.85L3.11 10.85L3.11 10.85Q3.72 10.85 4.29 11.14L4.29 11.14L4.29 11.14Q4.86 11.42 5.59 11.97L5.59 11.97ZM11.06 11.06L11.06 11.06Q11.70 10.53 12.33 9.52L12.33 9.52L12.33 9.52Q12.96 8.51 13.37 7.34L13.37 7.34L13.37 7.34Q13.78 6.16 13.78 5.14L13.78 5.14L13.78 5.14Q13.78 4.02 13.21 3.29L13.21 3.29L13.21 3.29Q12.64 2.56 11.41 2.42L11.41 2.42L11.41 2.42Q10.22 2.66 8.89 5.28L8.89 5.28L8.89 5.28Q7.76 7.52 7.76 9.18L7.76 9.18L7.76 9.18Q7.76 9.77 7.90 10.29L7.90 10.29L7.90 10.29Q8.08 10.96 8.52 11.31L8.52 11.31L8.52 11.31Q8.96 11.66 9.55 11.66L9.55 11.66L9.55 11.66Q10.33 11.66 11.06 11.06L11.06 11.06ZM13.40 1.71L13.40 1.71Q14.31 2.11 14.76 3.01L14.76 3.01L14.76 3.01Q15.20 3.91 15.20 5.05L15.20 5.05L15.20 5.05Q15.20 5.78 14.99 6.66L14.99 6.66L14.99 6.66Q14.53 8.51 13.43 10.09L13.43 10.09L13.43 10.09Q12.32 11.68 10.75 12.36L10.75 12.36L10.75 12.36Q9.94 12.71 9.14 12.71L9.14 12.71L9.14 12.71Q8.06 12.71 7.28 12.11L7.28 12.11L7.28 12.11Q6.50 11.51 6.33 10.39L6.33 10.39L6.33 10.39Q6.27 10.01 6.27 9.56L6.27 9.56L6.27 9.56Q6.27 8.16 6.85 6.69L6.85 6.69L6.85 6.69Q7.42 5.21 8.32 3.93L8.32 3.93L8.32 3.93Q9.04 2.90 10.07 2.13L10.07 2.13L10.07 2.13Q11.10 1.37 12.15 1.37L12.15 1.37L12.15 1.37Q12.78 1.37 13.37 1.69L13.37 1.69L13.40 1.71ZM22.86 7.62L22.86 7.62Q22.92 7.60 23.06 7.60L23.06 7.60L23.06 7.60Q23.27 7.60 23.41 7.68L23.41 7.68L23.41 7.68Q23.55 7.76 23.53 7.94L23.53 7.94L23.53 7.94Q23.41 8.96 23.33 9.73L23.33 9.73L23.33 9.73Q23.25 10.50 23.20 11.00L23.20 11.00L23.03 12.61L23.03 12.61Q23.00 12.87 22.66 13.05L22.66 13.05L22.66 13.05Q22.32 13.24 21.98 13.24L21.98 13.24L21.98 13.24Q21.78 13.24 21.67 13.16L21.67 13.16L21.67 13.16Q21.56 13.08 21.57 12.91L21.57 12.91L21.57 12.91Q21.64 12.24 21.85 10.44L21.85 10.44L21.85 10.44Q22.05 8.64 22.04 8.65L22.04 8.65L22.04 8.65Q21.71 9.77 21.18 10.63L21.18 10.63L21.18 10.63Q20.65 11.48 19.80 11.97L19.80 11.97L19.80 11.97Q19.42 12.19 18.96 12.31L18.96 12.31L18.96 12.31Q18.49 12.43 18.02 12.43L18.02 12.43L18.02 12.43Q17.01 12.43 16.34 11.89L16.34 11.89L16.34 11.89Q15.43 11.13 15.43 9.88L15.43 9.88L15.43 9.88Q15.43 8.47 16.41 6.80L16.41 6.80L16.41 6.80Q17.40 5.14 18.54 3.88L18.54 3.88L18.54 3.88Q19.40 2.90 20.19 2.25L20.19 2.25L20.19 2.25Q20.97 1.60 21.87 1.34L21.87 1.34L21.87 1.34Q22.19 1.26 22.43 1.26L22.43 1.26L22.43 1.26Q22.96 1.26 23.23 1.58L23.23 1.58L23.23 1.58Q23.51 1.90 23.51 2.48L23.51 2.48L23.51 2.48Q23.51 2.76 23.48 2.90L23.48 2.90L23.48 2.90Q23.44 3.15 23.08 3.33L23.08 3.33L23.08 3.33Q22.72 3.51 22.39 3.51L22.39 3.51L22.39 3.51Q22.19 3.51 22.09 3.44L22.09 3.44L22.09 3.44Q21.98 3.36 22.01 3.21L22.01 3.21L22.01 3.21Q22.05 2.95 22.05 2.80L22.05 2.80L22.05 2.80Q22.05 2.45 21.85 2.25L21.85 2.25L21.85 2.25Q21.35 2.58 21.28 2.63L21.28 2.63L21.28 2.63Q19.74 3.77 18.34 5.96L18.34 5.96L18.34 5.96Q17.72 6.93 17.35 7.80L17.35 7.80L17.35 7.80Q16.97 8.67 16.97 9.51L16.97 9.51L16.97 9.51Q16.97 10.04 17.20 10.54L17.20 10.54L17.20 10.54Q17.43 11.05 17.88 11.26L17.88 11.26L17.88 11.26Q18.23 11.42 18.52 11.42L18.52 11.42L18.52 11.42Q19.26 11.42 19.77 10.65L19.77 10.65L19.77 10.65Q20.27 9.87 20.57 8.86L20.57 8.86L20.57 8.86Q19.95 8.95 19.64 8.97L19.64 8.97L19.50 8.99L19.50 8.99Q19.19 8.99 19.19 8.79L19.19 8.79L19.19 8.79Q19.19 8.61 19.45 8.37L19.45 8.37L19.45 8.37Q19.70 8.13 19.94 8.09L19.94 8.09L19.94 8.09Q21.29 7.84 22.86 7.62L22.86 7.62ZM28.92 11.06L28.92 11.06Q29.57 10.53 30.20 9.52L30.20 9.52L30.20 9.52Q30.83 8.51 31.23 7.34L31.23 7.34L31.23 7.34Q31.64 6.16 31.64 5.14L31.64 5.14L31.64 5.14Q31.64 4.02 31.07 3.29L31.07 3.29L31.07 3.29Q30.51 2.56 29.27 2.42L29.27 2.42L29.27 2.42Q28.08 2.66 26.75 5.28L26.75 5.28L26.75 5.28Q25.62 7.52 25.62 9.18L25.62 9.18L25.62 9.18Q25.62 9.77 25.76 10.29L25.76 10.29L25.76 10.29Q25.94 10.96 26.38 11.31L26.38 11.31L26.38 11.31Q26.82 11.66 27.41 11.66L27.41 11.66L27.41 11.66Q28.20 11.66 28.92 11.06L28.92 11.06ZM31.26 1.71L31.26 1.71Q32.17 2.11 32.62 3.01L32.62 3.01L32.62 3.01Q33.07 3.91 33.07 5.05L33.07 5.05L33.07 5.05Q33.07 5.78 32.86 6.66L32.86 6.66L32.86 6.66Q32.40 8.51 31.29 10.09L31.29 10.09L31.29 10.09Q30.18 11.68 28.62 12.36L28.62 12.36L28.62 12.36Q27.80 12.71 27.01 12.71L27.01 12.71L27.01 12.71Q25.93 12.71 25.14 12.11L25.14 12.11L25.14 12.11Q24.36 11.51 24.19 10.39L24.19 10.39L24.19 10.39Q24.14 10.01 24.14 9.56L24.14 9.56L24.14 9.56Q24.14 8.16 24.71 6.69L24.71 6.69L24.71 6.69Q25.28 5.21 26.18 3.93L26.18 3.93L26.18 3.93Q26.91 2.90 27.94 2.13L27.94 2.13L27.94 2.13Q28.97 1.37 30.02 1.37L30.02 1.37L30.02 1.37Q30.65 1.37 31.23 1.69L31.23 1.69L31.26 1.71Z"></path></g><!----><!----></svg>