<svg data-v-423bf9ae="" xmlns="http://www.w3.org/2000/svg" viewBox="0 0 7005 4899" class="iconLeft"><!----><!----><!----><g data-v-423bf9ae="" id="7fa3a310-f87f-44a0-bced-6162f420dd66" fill="#000000" transform="matrix(5.0083474367812615,0,0,5.0083474367812615,6838.497018334405,2412.9482711015003)"><path d="M5.59 11.97L5.59 11.97Q5.68 12.03 5.68 12.12L5.68 12.12L5.68 12.12Q5.68 12.32 5.32 12.52L5.32 12.52L5.32 12.52Q4.96 12.73 4.62 12.73L4.62 12.73L4.62 12.73Q4.42 12.73 4.34 12.66L4.34 12.66L4.34 12.66Q4.27 12.60 3.94 12.36L3.94 12.36L3.94 12.36Q3.61 12.11 3.28 11.94L3.28 11.94L3.28 11.94Q2.94 11.77 2.69 11.77L2.69 11.77L2.69 11.77Q2.46 11.77 2.22 11.94L2.22 11.94L2.22 11.94Q1.97 12.10 1.75 12.29L1.75 12.29L1.75 12.29Q1.53 12.47 1.43 12.56L1.43 12.56L1.43 12.56Q1.25 12.70 0.97 12.80L0.97 12.80L0.97 12.80Q0.70 12.89 0.48 12.89L0.48 12.89L0.48 12.89Q0.28 12.89 0.18 12.82L0.18 12.82L0.18 12.82Q0.07 12.75 0.11 12.60L0.11 12.60L0.50 10.92L0.50 10.92Q1.69 5.75 2.59 2.16L2.59 2.16L2.59 2.16Q2.65 1.92 3.00 1.74L3.00 1.74L3.00 1.74Q3.36 1.57 3.70 1.57L3.70 1.57L3.70 1.57Q3.88 1.57 3.98 1.64L3.98 1.64L3.98 1.64Q4.07 1.71 4.03 1.85L4.03 1.85L4.03 1.85Q3.61 3.63 2.80 7.18L2.80 7.18L1.88 11.17L1.88 11.17Q2.35 10.93 2.79 10.88L2.79 10.88L2.79 10.88Q3.01 10.85 3.11 10.85L3.11 10.85L3.11 10.85Q3.72 10.85 4.29 11.14L4.29 11.14L4.29 11.14Q4.86 11.42 5.59 11.97L5.59 11.97ZM11.06 11.06L11.06 11.06Q11.70 10.53 12.33 9.52L12.33 9.52L12.33 9.52Q12.96 8.51 13.37 7.34L13.37 7.34L13.37 7.34Q13.78 6.16 13.78 5.14L13.78 5.14L13.78 5.14Q13.78 4.02 13.21 3.29L13.21 3.29L13.21 3.29Q12.64 2.56 11.41 2.42L11.41 2.42L11.41 2.42Q10.22 2.66 8.89 5.28L8.89 5.28L8.89 5.28Q7.76 7.52 7.76 9.18L7.76 9.18L7.76 9.18Q7.76 9.77 7.90 10.29L7.90 10.29L7.90 10.29Q8.08 10.96 8.52 11.31L8.52 11.31L8.52 11.31Q8.96 11.66 9.55 11.66L9.55 11.66L9.55 11.66Q10.33 11.66 11.06 11.06L11.06 11.06ZM13.40 1.71L13.40 1.71Q14.31 2.11 14.76 3.01L14.76 3.01L14.76 3.01Q15.20 3.91 15.20 5.05L15.20 5.05L15.20 5.05Q15.20 5.78 14.99 6.66L14.99 6.66L14.99 6.66Q14.53 8.51 13.43 10.09L13.43 10.09L13.43 10.09Q12.32 11.68 10.75 12.36L10.75 12.36L10.75 12.36Q9.94 12.71 9.14 12.71L9.14 12.71L9.14 12.71Q8.06 12.71 7.28 12.11L7.28 12.11L7.28 12.11Q6.50 11.51 6.33 10.39L6.33 10.39L6.33 10.39Q6.27 10.01 6.27 9.56L6.27 9.56L6.27 9.56Q6.27 8.16 6.85 6.69L6.85 6.69L6.85 6.69Q7.42 5.21 8.32 3.93L8.32 3.93L8.32 3.93Q9.04 2.90 10.07 2.13L10.07 2.13L10.07 2.13Q11.10 1.37 12.15 1.37L12.15 1.37L12.15 1.37Q12.78 1.37 13.37 1.69L13.37 1.69L13.40 1.71ZM22.86 7.62L22.86 7.62Q22.92 7.60 23.06 7.60L23.06 7.60L23.06 7.60Q23.27 7.60 23.41 7.68L23.41 7.68L23.41 7.68Q23.55 7.76 23.53 7.94L23.53 7.94L23.53 7.94Q23.41 8.96 23.33 9.73L23.33 9.73L23.33 9.73Q23.25 10.50 23.20 11.00L23.20 11.00L23.03 12.61L23.03 12.61Q23.00 12.87 22.66 13.05L22.66 13.05L22.66 13.05Q22.32 13.24 21.98 13.24L21.98 13.24L21.98 13.24Q21.78 13.24 21.67 13.16L21.67 13.16L21.67 13.16Q21.56 13.08 21.57 12.91L21.57 12.91L21.57 12.91Q21.64 12.24 21.85 10.44L21.85 10.44L21.85 10.44Q22.05 8.64 22.04 8.65L22.04 8.65L22.04 8.65Q21.71 9.77 21.18 10.63L21.18 10.63L21.18 10.63Q20.65 11.48 19.80 11.97L19.80 11.97L19.80 11.97Q19.42 12.19 18.96 12.31L18.96 12.31L18.96 12.31Q18.49 12.43 18.02 12.43L18.02 12.43L18.02 12.43Q17.01 12.43 16.34 11.89L16.34 11.89L16.34 11.89Q15.43 11.13 15.43 9.88L15.43 9.88L15.43 9.88Q15.43 8.47 16.41 6.80L16.41 6.80L16.41 6.80Q17.40 5.14 18.54 3.88L18.54 3.88L18.54 3.88Q19.40 2.90 20.19 2.25L20.19 2.25L20.19 2.25Q20.97 1.60 21.87 1.34L21.87 1.34L21.87 1.34Q22.19 1.26 22.43 1.26L22.43 1.26L22.43 1.26Q22.96 1.26 23.23 1.58L23.23 1.58L23.23 1.58Q23.51 1.90 23.51 2.48L23.51 2.48L23.51 2.48Q23.51 2.76 23.48 2.90L23.48 2.90L23.48 2.90Q23.44 3.15 23.08 3.33L23.08 3.33L23.08 3.33Q22.72 3.51 22.39 3.51L22.39 3.51L22.39 3.51Q22.19 3.51 22.09 3.44L22.09 3.44L22.09 3.44Q21.98 3.36 22.01 3.21L22.01 3.21L22.01 3.21Q22.05 2.95 22.05 2.80L22.05 2.80L22.05 2.80Q22.05 2.45 21.85 2.25L21.85 2.25L21.85 2.25Q21.35 2.58 21.28 2.63L21.28 2.63L21.28 2.63Q19.74 3.77 18.34 5.96L18.34 5.96L18.34 5.96Q17.72 6.93 17.35 7.80L17.35 7.80L17.35 7.80Q16.97 8.67 16.97 9.51L16.97 9.51L16.97 9.51Q16.97 10.04 17.20 10.54L17.20 10.54L17.20 10.54Q17.43 11.05 17.88 11.26L17.88 11.26L17.88 11.26Q18.23 11.42 18.52 11.42L18.52 11.42L18.52 11.42Q19.26 11.42 19.77 10.65L19.77 10.65L19.77 10.65Q20.27 9.87 20.57 8.86L20.57 8.86L20.57 8.86Q19.95 8.95 19.64 8.97L19.64 8.97L19.50 8.99L19.50 8.99Q19.19 8.99 19.19 8.79L19.19 8.79L19.19 8.79Q19.19 8.61 19.45 8.37L19.45 8.37L19.45 8.37Q19.70 8.13 19.94 8.09L19.94 8.09L19.94 8.09Q21.29 7.84 22.86 7.62L22.86 7.62ZM28.92 11.06L28.92 11.06Q29.57 10.53 30.20 9.52L30.20 9.52L30.20 9.52Q30.83 8.51 31.23 7.34L31.23 7.34L31.23 7.34Q31.64 6.16 31.64 5.14L31.64 5.14L31.64 5.14Q31.64 4.02 31.07 3.29L31.07 3.29L31.07 3.29Q30.51 2.56 29.27 2.42L29.27 2.42L29.27 2.42Q28.08 2.66 26.75 5.28L26.75 5.28L26.75 5.28Q25.62 7.52 25.62 9.18L25.62 9.18L25.62 9.18Q25.62 9.77 25.76 10.29L25.76 10.29L25.76 10.29Q25.94 10.96 26.38 11.31L26.38 11.31L26.38 11.31Q26.82 11.66 27.41 11.66L27.41 11.66L27.41 11.66Q28.20 11.66 28.92 11.06L28.92 11.06ZM31.26 1.71L31.26 1.71Q32.17 2.11 32.62 3.01L32.62 3.01L32.62 3.01Q33.07 3.91 33.07 5.05L33.07 5.05L33.07 5.05Q33.07 5.78 32.86 6.66L32.86 6.66L32.86 6.66Q32.40 8.51 31.29 10.09L31.29 10.09L31.29 10.09Q30.18 11.68 28.62 12.36L28.62 12.36L28.62 12.36Q27.80 12.71 27.01 12.71L27.01 12.71L27.01 12.71Q25.93 12.71 25.14 12.11L25.14 12.11L25.14 12.11Q24.36 11.51 24.19 10.39L24.19 10.39L24.19 10.39Q24.14 10.01 24.14 9.56L24.14 9.56L24.14 9.56Q24.14 8.16 24.71 6.69L24.71 6.69L24.71 6.69Q25.28 5.21 26.18 3.93L26.18 3.93L26.18 3.93Q26.91 2.90 27.94 2.13L27.94 2.13L27.94 2.13Q28.97 1.37 30.02 1.37L30.02 1.37L30.02 1.37Q30.65 1.37 31.23 1.69L31.23 1.69L31.26 1.71Z"></path></g><defs data-v-423bf9ae=""><linearGradient data-v-423bf9ae="" gradientTransform="rotate(25)" id="90e6a7e1-e251-4728-a5e4-9e71a0bb0183" x1="0%" y1="0%" x2="100%" y2="0%"><stop data-v-423bf9ae="" offset="0%" style="stop-color: rgb(66, 15, 20); stop-opacity: 1;"></stop><stop data-v-423bf9ae="" offset="100%" style="stop-color: rgb(197, 84, 94); stop-opacity: 1;"></stop></linearGradient></defs><g data-v-423bf9ae="" id="7169a4ed-131a-44ec-896d-c2b8a3da3b57" transform="matrix(7.3775316026475695,0,0,7.3775316026475695,-367.4390869485551,-1327.2913975287333)" stroke="none" fill="url(#90e6a7e1-e251-4728-a5e4-9e71a0bb0183)"><path d="M973.235 521.094c-1.02-.932-25.474-22.832-72.809-22.832-11.783 0-24.1 1.392-36.615 4.146-24.732 5.429-46.916 25.372-63.454 44.913.214-.615.442-1.236.647-1.852a263.745 263.745 0 0 0 11.701-52.178c52.875-11.484 87.565-44.971 92.915-90.009 6.439-54.205 32.64-77.027 32.903-77.256a2.804 2.804 0 0 0 .888-2.906 2.819 2.819 0 0 0-2.276-2.016c-.111-.021-2.736-.416-7.295-.416-15.088 0-54.457 4.453-94.072 45.665-13.151 13.682-20.572 33.349-24.688 53.051-.272-1.708-.533-3.407-.841-5.106-2.065-11.563-4.986-23.203-8.549-34.79 19.553-50.147 10.934-97.359-23.423-126.724-41.49-35.47-45.911-69.938-45.952-70.283a2.815 2.815 0 0 0-1.925-2.35 2.799 2.799 0 0 0-2.941.776c-1.409 1.538-34.277 38.438-18.691 109.415 9.914 45.146 68.159 81.826 84.044 91.084 3.249 11.514 5.851 23.065 7.597 34.512 3.167 20.604 3.894 41.25 2.159 61.356a245.442 245.442 0 0 1-2.145 17.525c-1.491-28.292-7.775-66.261-29.121-88.468-39.615-41.215-78.984-45.659-94.072-45.659-4.559 0-7.184.396-7.295.41a2.805 2.805 0 0 0-2.273 2.013 2.812 2.812 0 0 0 .879 2.909c.264.226 26.49 23.247 32.906 77.256 5.25 44.194 38.76 77.242 89.956 89.318a260.912 260.912 0 0 1-2.906 8.54c-7.307 20.297-17.534 40.591-30.401 60.331l-9.727 14.077c-3.331 4.365-6.955 9.044-10.471 12.773a213.475 213.475 0 0 1-17.156 16.822c10.594-26.549 23.81-70.816 10.983-103.6-26.476-67.676-74.306-80.098-76.327-80.59a2.787 2.787 0 0 0-2.871.981 2.817 2.817 0 0 0-.311 3.026c.164.313 15.586 31.611.847 83.971-11.689 41.479 5.054 83.481 44.892 114.023-14.438 10.269-28.529 18.735-38.912 24.765-10.374 6.041-20.707 11.71-30.891 17.203 6.369-8.276 11.385-17.388 13.497-27.003 11.763-53.593-13.125-81.527-14.191-82.69a2.81 2.81 0 0 0-2.933-.776 2.813 2.813 0 0 0-1.934 2.344c-.029.255-3.457 25.972-34.219 52.266-24.299 20.763-31.588 53.306-20.396 88.409a790.745 790.745 0 0 0-13.406 7.714c-16.143 9.498-29.484 18.267-40.793 26.798-.606.454-1.169.926-1.767 1.383-.598-.457-1.163-.929-1.767-1.383-11.309-8.531-24.65-17.3-40.793-26.798a768.826 768.826 0 0 0-13.412-7.714c11.197-35.104 3.908-67.646-20.391-88.409-30.762-26.294-34.189-52.011-34.219-52.266a2.822 2.822 0 0 0-1.934-2.344 2.81 2.81 0 0 0-2.933.776c-1.066 1.163-25.954 29.098-14.191 82.69 2.112 9.615 7.128 18.727 13.497 27.003-10.184-5.493-20.52-11.162-30.896-17.203-10.377-6.029-24.469-14.496-38.906-24.765 39.838-30.542 56.581-72.545 44.892-114.023-14.739-52.36.683-83.658.841-83.971a2.822 2.822 0 0 0-.305-3.026 2.786 2.786 0 0 0-2.871-.981c-2.021.492-49.852 12.914-76.327 80.59-12.826 32.783.39 77.051 10.983 103.6a213.145 213.145 0 0 1-17.156-16.822c-3.516-3.729-7.14-8.408-10.471-12.773l-9.727-14.077c-12.867-19.74-23.095-40.034-30.401-60.331a260.912 260.912 0 0 1-2.906-8.54c51.196-12.076 84.706-45.124 89.956-89.318 6.416-54.009 32.643-77.03 32.906-77.256a2.818 2.818 0 0 0 .879-2.909 2.806 2.806 0 0 0-2.273-2.013c-.111-.015-2.736-.41-7.295-.41-15.088 0-54.457 4.444-94.072 45.659-21.346 22.207-27.63 60.176-29.121 88.468a246.018 246.018 0 0 1-2.145-17.525c-1.734-20.106-1.008-40.752 2.156-61.356 1.749-11.446 4.351-22.998 7.6-34.512 15.885-9.258 74.13-45.938 84.044-91.084 15.586-70.978-17.282-107.877-18.691-109.415a2.802 2.802 0 0 0-2.941-.776 2.815 2.815 0 0 0-1.925 2.35c-.041.346-4.462 34.813-45.952 70.283-34.356 29.364-42.976 76.576-23.423 126.724-3.562 11.587-6.483 23.227-8.549 34.79-.308 1.699-.568 3.398-.841 5.106-4.116-19.702-11.537-39.369-24.688-53.051-39.615-41.212-78.984-45.665-94.072-45.665-4.559 0-7.184.396-7.295.416a2.812 2.812 0 0 0-1.388 4.922c.264.229 26.464 23.051 32.903 77.256 5.35 45.038 40.04 78.524 92.915 90.009a263.816 263.816 0 0 0 11.701 52.178c.205.615.434 1.236.647 1.852-16.538-19.541-38.722-39.484-63.454-44.913-12.516-2.754-24.832-4.146-36.615-4.146-47.335 0-71.789 21.9-72.809 22.832a2.827 2.827 0 0 0-.776 2.944 2.824 2.824 0 0 0 2.355 1.925c.343.038 34.811 4.462 70.274 45.952 18.823 22.017 44.889 33.656 75.375 33.656h.003c15.381 0 31.775-3.056 47.792-8.848a337.672 337.672 0 0 0 7.518 12.861l9.756 14.912c3.504 4.834 6.817 9.404 11.086 14.253 1.137 1.318 2.323 2.599 3.495 3.888-16.465-7.383-34.802-13.066-52.33-13.066-4.368 0-8.613.366-12.612 1.078-71.54 12.759-93.059 57.252-93.94 59.136a2.814 2.814 0 0 0 3.313 3.897c.144-.044 33.246-9.516 82.526 15.571 13.649 6.943 28.072 10.459 42.864 10.459 27.478 0 55.682-12.158 80.086-34.374 8.373 5.83 17.531 11.807 27.946 18.208 11.76 7.245 23.361 13.96 34.708 20.429-9.598-1.904-19.529-3.114-29.271-3.114-11.616 0-22.02 1.772-30.923 5.253-67.676 26.476-80.101 74.303-80.599 76.324a2.814 2.814 0 0 0 .984 2.871c.87.688 2.051.806 3.026.308.141-.073 14.581-7.257 40.008-7.257 14.045 0 28.84 2.168 43.972 6.422 8.672 2.446 17.458 3.686 26.109 3.686 32.628 0 64.321-17.763 88.195-49.014a605.287 605.287 0 0 1 6.609 4.072c14.024 8.73 26.095 17.042 36 24.762-3.363 3.135-6.583 6.272-9.445 9.36-8.071 8.191-15 17.839-20.716 27.788-1.699 2.769-2.221 6.044-1.462 9.208s2.707 5.845 5.479 7.544a12.162 12.162 0 0 0 6.357 1.802c4.28 0 8.171-2.177 10.403-5.824l4.38-7.544c3.694-6.023 8.089-11.897 12.923-17.042 2.918-3.308 6.234-6.686 9.765-10.063 3.53 3.378 6.847 6.756 9.765 10.063 4.834 5.145 9.229 11.019 12.923 17.042l4.38 7.544a12.109 12.109 0 0 0 10.395 5.824 12.17 12.17 0 0 0 6.366-1.802c2.769-1.699 4.72-4.38 5.479-7.544s.237-6.439-1.462-9.208l-4.761-7.764c-4.597-7.09-10.028-14.007-15.955-20.024-2.862-3.088-6.085-6.223-9.448-9.36 9.905-7.72 21.979-16.031 36.003-24.762a605.287 605.287 0 0 1 6.609-4.072c23.874 31.251 55.567 49.014 88.195 49.014 8.651 0 17.438-1.239 26.109-3.686 15.132-4.254 29.924-6.422 43.972-6.422 25.427 0 39.867 7.184 40.008 7.257a2.811 2.811 0 0 0 3.026-.308 2.825 2.825 0 0 0 .984-2.871c-.498-2.021-12.923-49.849-80.599-76.324-8.903-3.48-19.307-5.253-30.923-5.253-9.741 0-19.673 1.21-29.271 3.114 11.347-6.469 22.948-13.184 34.708-20.429 10.415-6.401 19.573-12.378 27.946-18.208 24.404 22.216 52.608 34.374 80.086 34.374 14.792 0 29.215-3.516 42.861-10.459 49.283-25.087 82.386-15.615 82.529-15.571a2.813 2.813 0 0 0 2.906-.888 2.808 2.808 0 0 0 .407-3.009c-.882-1.884-22.4-46.377-93.94-59.136-3.999-.712-8.244-1.078-12.612-1.078-17.528 0-35.865 5.684-52.33 13.066 1.172-1.289 2.353-2.569 3.495-3.888 4.269-4.849 7.582-9.419 11.086-14.253l9.756-14.912a339.008 339.008 0 0 0 7.518-12.861c16.017 5.792 32.411 8.848 47.789 8.848h.006c30.486 0 56.552-11.64 75.375-33.656 35.461-41.49 69.932-45.914 70.271-45.952a2.821 2.821 0 0 0 2.358-1.925 2.817 2.817 0 0 0-.773-2.944c-1.019-.932.809.747 0 0z"></path></g><!----></svg>